<?xml version="1.0" standalone="no"?>
<!DOCTYPE svg PUBLIC "-//W3C//DTD SVG 20010904//EN"
 "http://www.w3.org/TR/2001/REC-SVG-20010904/DTD/svg10.dtd">
<svg version="1.0" xmlns="http://www.w3.org/2000/svg"
 width="349.000000pt" height="349.000000pt" viewBox="0 0 349.000000 349.000000"
 preserveAspectRatio="xMidYMid meet">
<metadata>
Created by potrace 1.11, written by Peter Selinger 2001-2013
</metadata>
<g transform="translate(0.000000,349.000000) scale(0.100000,-0.100000)"
fill="#000000" stroke="none">
<path d="M1775 3243 c-69 -7 -175 -42 -430 -139 -391 -148 -1237 -479 -1274
-499 -72 -37 -71 -34 -71 -251 l0 -196 29 -27 c16 -15 50 -38 75 -52 25 -13
46 -27 46 -31 0 -3 -15 -12 -34 -18 -19 -6 -53 -24 -75 -41 l-41 -29 0 -199 0
-198 27 -28 c15 -15 45 -36 65 -46 21 -11 38 -22 38 -25 0 -3 -15 -11 -34 -19
-18 -8 -48 -26 -65 -41 l-31 -26 0 -198 0 -198 33 -28 c50 -43 187 -104 812
-364 319 -133 613 -257 654 -276 200 -92 271 -86 551 46 169 80 238 110 800
352 413 178 558 248 603 291 l37 34 0 196 0 195 -30 25 c-16 14 -45 31 -65 37
-19 6 -35 15 -35 19 0 4 15 15 33 25 17 10 47 33 65 49 l32 31 0 191 c0 141
-3 196 -13 209 -7 10 -44 33 -82 51 l-69 33 51 25 c28 15 65 40 82 57 l31 32
0 192 c0 187 -1 193 -22 213 -30 27 -70 47 -165 82 -43 16 -332 129 -643 251
-718 282 -785 304 -885 293z m-84 -233 l106 -42 114 35 c62 20 115 35 116 33
2 -2 -6 -25 -18 -52 -44 -101 -52 -87 77 -135 63 -23 113 -44 111 -45 -3 -3
-266 -34 -287 -34 -5 0 -23 -36 -41 -80 -18 -43 -36 -77 -40 -74 -4 2 -28 40
-55 85 -26 44 -52 83 -58 85 -6 2 -82 10 -169 18 -87 8 -161 16 -163 19 -2 2
44 21 103 42 158 56 148 45 108 119 -38 68 -42 81 -22 73 6 -3 60 -24 118 -47z
m-459 -315 c103 -21 198 -71 222 -116 19 -36 19 -36 0 -70 -24 -43 -121 -93
-219 -114 -91 -19 -318 -19 -408 0 -303 64 -301 234 3 299 89 20 310 20 402 1z
m712 -497 c-64 -95 -120 -176 -124 -181 -3 -4 -134 45 -290 110 -155 64 -278
119 -272 121 17 5 754 120 780 121 20 1 8 -21 -94 -171z"/>
</g>
</svg>
